<svg display="none" xmlns="http://www.w3.org/2000/svg">

  <symbol id="timer" viewBox="0 0 512 512">
    <path fill="#ffffff" d="m480.674 256.294c-4.142 0-7.5 3.357-7.5 7.5v7.496h-35.147c-6.722-43.359-26.913-83.348-58.528-114.964-32.389-32.388-73.568-52.787-118.155-58.996v-9.28c0-2.464-.305-4.881-.894-7.21 10.674-8.54 17.104-21.619 17.104-35.46 0-25.022-20.357-45.38-45.38-45.38s-45.38 20.357-45.38 45.38c0 13.844 6.433 26.926 17.111 35.466-.587 2.305-.901 4.719-.901 7.204v9.281c-44.587 6.209-85.765 26.607-118.155 58.996-39.351 39.352-61.023 91.673-61.023 147.324s21.672 107.973 61.023 147.325c39.352 39.352 91.673 61.024 147.325 61.024s107.973-21.672 147.325-61.024c5.185-5.185 10.138-10.68 14.723-16.33 2.61-3.217 2.118-7.94-1.099-10.55-3.216-2.611-7.94-2.117-10.549 1.099-4.259 5.25-8.862 10.355-13.681 15.175-36.519 36.519-85.073 56.63-136.719 56.63s-100.2-20.111-136.718-56.631c-36.518-36.519-56.63-85.072-56.63-136.718s20.112-100.199 56.63-136.718c36.519-36.519 85.073-56.63 136.718-56.63s100.199 20.111 136.718 56.63c36.518 36.519 56.63 85.072 56.63 136.718 0 32.822-8.299 65.151-24 93.491-2.007 3.623-.697 8.188 2.926 10.195 3.625 2.007 8.188.697 10.195-2.926 11.725-21.163 19.614-44.382 23.362-68.402h35.169v7.5c0 4.143 3.358 7.5 7.5 7.5s7.5-3.357 7.5-7.5v-79.716c0-4.142-3.358-7.499-7.5-7.499zm-234.33-160.507c-4.696-.313-9.42-.483-14.17-.483s-9.474.17-14.17.483v-7.737c0-7.818 6.356-14.18 14.17-14.18 7.685 0 14.212 6.462 14.17 14.18zm6.568-28.25c-.039-.04-.076-.082-.115-.121-5.511-5.511-12.835-8.546-20.623-8.546-8.101 0-15.439 3.323-20.73 8.675-6.058-5.687-9.65-13.711-9.65-22.165 0-16.752 13.628-30.38 30.38-30.38s30.38 13.628 30.38 30.38c0 8.45-3.588 16.47-9.642 22.157zm220.262 253.473h-33.396c.478-5.762.744-11.552.744-17.358 0-5.828-.252-11.617-.723-17.361h33.375zm-336.459 78.101c2.929 2.929 7.678 2.929 10.607 0s2.929-7.678 0-10.607-7.678-2.929-10.607 0c-2.929 2.93-2.929 7.678 0 10.607zm-24.541-95.459c0-4.142-3.358-7.5-7.5-7.5s-7.5 3.358-7.5 7.5 3.358 7.5 7.5 7.5 7.5-3.358 7.5-7.5zm-31.747-62.176c-3.899-1.393-8.193.639-9.586 4.539-6.597 18.464-9.942 37.855-9.942 57.637 0 94.441 76.833 171.275 171.275 171.275s171.275-76.834 171.275-171.275-76.833-171.274-171.275-171.274c-58.639 0-112.572 29.505-144.269 78.926-2.236 3.486-1.223 8.126 2.264 10.362 3.485 2.235 8.125 1.223 10.362-2.265 28.926-45.099 78.138-72.023 131.643-72.023 86.17 0 156.275 70.104 156.275 156.274 0 86.171-70.104 156.275-156.275 156.275s-156.275-70.105-156.275-156.276c0-18.057 3.051-35.75 9.067-52.59 1.394-3.9-.639-8.192-4.539-9.585zm286.747 62.176c0-4.142-3.358-7.5-7.5-7.5s-7.5 3.358-7.5 7.5 3.358 7.5 7.5 7.5 7.5-3.358 7.5-7.5zm-219.853-84.853c2.929-2.929 2.929-7.678 0-10.606-2.929-2.929-7.678-2.929-10.607 0s-2.929 7.678 0 10.606c2.93 2.929 7.678 2.929 10.607 0zm169.706 180.312c2.929 2.929 7.678 2.929 10.607 0s2.929-7.678 0-10.607-7.678-2.929-10.607 0c-2.929 2.93-2.929 7.678 0 10.607zm10.606-180.312c2.929-2.929 2.929-7.678 0-10.606-2.929-2.929-7.678-2.929-10.607 0s-2.929 7.678 0 10.606c2.93 2.929 7.679 2.929 10.607 0zm-102.959 212.353c0 4.142 3.358 7.5 7.5 7.5s7.5-3.358 7.5-7.5-3.358-7.5-7.5-7.5-7.5 3.358-7.5 7.5zm0-159.556c-14.553 3.405-25.428 16.48-25.428 32.056 0 18.156 14.771 32.928 32.928 32.928s32.928-14.771 32.928-32.928c0-5.515-1.369-10.713-3.776-15.284l42.783-36.983c3.134-2.709 3.478-7.445.769-10.578-2.708-3.133-7.444-3.478-10.579-.77l-42.788 36.988c-3.492-2.543-7.501-4.414-11.837-5.428v-25.772c0-4.143-3.358-7.5-7.5-7.5s-7.5 3.357-7.5 7.5zm7.5 14.128c9.885 0 17.928 8.042 17.928 17.928s-8.042 17.928-17.928 17.928-17.928-8.042-17.928-17.928 8.043-17.928 17.928-17.928zm0-102.072c4.142 0 7.5-3.358 7.5-7.5s-3.358-7.5-7.5-7.5-7.5 3.358-7.5 7.5 3.358 7.5 7.5 7.5z"/>
  </symbol>

  <symbol id="relation" viewBox="0 0 64 64">
    <path fill="#ffffff" d="m36 13.05v-8.05a3.009 3.009 0 0 0 -3-3h-28a3.009 3.009 0 0 0 -3 3v54a3.009 3.009 0 0 0 3 3h28a3.009 3.009 0 0 0 3-3v-8.05a18.975 18.975 0 0 0 0-37.9zm15.95 17.95h-7.97a37.784 37.784 0 0 0 -.97-7.79 19.225 19.225 0 0 0 4.37-2.83 16.943 16.943 0 0 1 4.57 10.62zm-6.02-12.01a16.516 16.516 0 0 1 -3.46 2.27 17.458 17.458 0 0 0 -2.83-5.6 17.015 17.015 0 0 1 6.29 3.33zm-18.94 4.22a37.784 37.784 0 0 0 -.97 7.79h-7.97a16.943 16.943 0 0 1 4.57-10.62 19.225 19.225 0 0 0 4.37 2.83zm-2.92-4.22a17.015 17.015 0 0 1 6.29-3.33 17.458 17.458 0 0 0 -2.83 5.6 16.516 16.516 0 0 1 -3.46-2.27zm1.95 14.01a37.784 37.784 0 0 0 .97 7.79 19.225 19.225 0 0 0 -4.37 2.83 16.943 16.943 0 0 1 -4.57-10.62zm1.51 9.74a17.458 17.458 0 0 0 2.83 5.6 17.015 17.015 0 0 1 -6.29-3.33 16.516 16.516 0 0 1 3.46-2.27zm.49-9.74h13.96a35.694 35.694 0 0 1 -.83 7.04 18.7 18.7 0 0 0 -12.3 0 35.694 35.694 0 0 1 -.83-7.04zm0-2a35.694 35.694 0 0 1 .83-7.04 18.7 18.7 0 0 0 12.3 0 35.694 35.694 0 0 1 .83 7.04zm12.61-8.98a16.662 16.662 0 0 1 -11.26 0c1.36-4.4 3.54-7.02 5.63-7.02s4.27 2.62 5.63 7.02zm-11.91-18.02-.31 1.24a1 1 0 0 1 -.97.76h-16.88a1 1 0 0 1 -.97-.76l-.31-1.24zm5.28 55a1 1 0 0 1 -1 1h-28a1 1 0 0 1 -1-1v-54a1 1 0 0 1 1-1h2.22l.43 1.73a3 3 0 0 0 2.91 2.27h16.88a3 3 0 0 0 2.91-2.27l.43-1.73h2.22a1 1 0 0 1 1 1v8.05a18.975 18.975 0 0 0 0 37.9zm1-10c-2.09 0-4.27-2.62-5.63-7.02a16.662 16.662 0 0 1 11.26 0c-1.36 4.4-3.54 7.02-5.63 7.02zm4.64-.66a17.458 17.458 0 0 0 2.83-5.6 16.516 16.516 0 0 1 3.46 2.27 17.015 17.015 0 0 1 -6.29 3.33zm7.74-4.72a19.225 19.225 0 0 0 -4.37-2.83 37.784 37.784 0 0 0 .97-7.79h7.97a16.943 16.943 0 0 1 -4.57 10.62z"/><path fill="#ffffff" d="m10 56h18v2h-18z"/><path fill="#ffffff" d="m6 56h2v2h-2z"/><path fill="#ffffff" d="m30 56h2v2h-2z"/><path fill="#ffffff" d="m39.47 6.852h4v2h-4z" transform="matrix(.259 -.966 .966 .259 23.153 45.877)"/><path fill="#ffffff" d="m45.5 9.349h4v2h-4z" transform="matrix(.5 -.866 .866 .5 14.791 46.314)"/><path fill="#ffffff" d="m50.678 13.322h4v2h-4z" transform="matrix(.707 -.707 .707 .707 5.302 41.444)"/><path fill="#ffffff" d="m54.651 18.5h4v2h-4z" transform="matrix(.866 -.5 .5 .866 -2.161 30.936)"/><path fill="#ffffff" d="m57.148 24.53h4v2h-4z" transform="matrix(.966 -.259 .259 .966 -4.593 16.184)"/><path fill="#ffffff" d="m58 31h4v2h-4z"/><path fill="#ffffff" d="m58.148 36.47h2v4h-2z" transform="matrix(.259 -.966 .966 .259 6.676 85.642)"/><path fill="#ffffff" d="m55.65 42.5h2v4h-2z" transform="matrix(.5 -.866 .866 .5 -10.212 71.313)"/><path fill="#ffffff" d="m51.678 47.678h2v4h-2z" transform="matrix(.707 -.707 .707 .707 -19.699 51.799)"/><path fill="#ffffff" d="m46.5 51.651h2v4h-2z" transform="matrix(.866 -.5 .5 .866 -20.461 30.936)"/><path fill="#ffffff" d="m40.471 54.148h2v4h-2z" transform="matrix(.966 -.259 .259 .966 -13.123 12.651)"/>
  </symbol>

  <symbol id="cooperation" viewBox="0 0 512 512">
    <path fill="#ffffff" d="m487.799 173.364-134.529 80.189c-9.932 5.92-13.91 18.1-9.904 28.557-5.998 2.516-12.711 2.634-18.86.258l-17.403-6.837c-6.943-2.729-14.438-3.204-21.672-1.372l-26.664 6.748c-1.034.261-2.047.567-3.038.914-16.29-9.3-25.994-12.08-43.184-5.433l-15.433 5.966c-7.293 2.819-15.334 2.15-22.077-1.844l-5.155-3.039c1.479-9.223-2.661-18.857-11.15-23.917l-134.529-80.19c-10.667-6.356-24.201 1.316-24.201 13.749v150.172c0 10.37 5.533 20.109 14.44 25.418l58.738 35.013c10.926 6.511 24.971 3.135 31.772-7.483l2.511 1.482-7.616 10.609c-8.507 11.847-5.802 28.32 6.047 36.828 5.857 4.205 12.995 5.791 19.989 4.549 1.071 7.077 4.883 13.307 10.702 17.485 5.841 4.193 13.024 5.771 19.999 4.534 1.027 6.794 4.682 13.185 10.692 17.499 8.098 5.813 18.139 6.287 26.29 2.608 1.793 4.97 5.038 9.281 9.422 12.429 11.39 8.176 27.184 5.969 35.918-4.853l19.729 11.688c4.211 2.495 8.839 3.681 13.41 3.681 9.025 0 17.83-4.624 22.754-12.936 2.079-3.509 3.25-7.31 3.582-11.125l.768.455c6.067 3.594 13.171 4.612 19.999 2.862 6.831-1.748 12.572-6.052 16.165-12.117 2.222-3.75 3.458-7.896 3.666-12.128 4.396 1.228 9.058 1.285 13.599.124 6.831-1.748 12.572-6.052 16.165-12.117 2.091-3.528 3.31-7.407 3.618-11.38 11.971 5.067 26.178.62 32.981-10.862 5.974-10.084 4.443-22.569-2.92-30.922l7.732-4.517c7.331 7.401 19.131 9.291 28.671 3.606l14.2-8.465c3.559-2.121 4.724-6.725 2.603-10.282-2.122-3.56-6.729-4.723-10.282-2.603l-14.2 8.465c-3.348 1.997-7.424 1.388-10.051-1.015-.049-.422-63.094-105.781-63.094-105.781-2.375-4.009-1.051-9.211 2.951-11.597l134.529-80.189c.686-.404 1.521.078 1.521.864v150.172c0 5.113-2.729 9.916-7.12 12.533l-14.179 8.452c-3.559 2.121-4.724 6.725-2.603 10.282 2.12 3.559 6.727 4.72 10.282 2.603l14.179-8.452c8.907-5.309 14.44-15.048 14.44-25.418v-150.171c.001-12.416-13.52-20.116-24.2-13.749zm-198.689 115.336c4.175-1.056 8.5-.782 12.508.792l17.441 6.852c10.41 4.025 21.779 3.583 31.697-1.102l51.139 86.32-8.287 4.842c-1.506.892-2.95 1.88-4.324 2.958l-109.371-64.769c-2.319-1.373-5.196-1.396-7.535-.062-2.341 1.334-3.786 3.821-3.786 6.516v1.507c0 5.335-2.078 10.351-5.852 14.122-3.771 3.769-8.783 5.843-14.112 5.843-.866-.032-1.629-.727-1.63-1.63v-35.595c0-7.755 4.341-14.677 10.984-18.144.33-.133.652-.29.962-.47 1.112-.508 2.283-.922 3.502-1.231zm-201.823 97.064c-2.197.556-4.481.229-6.429-.934l-58.738-35.012c-4.392-2.618-7.12-7.42-7.12-12.533v-150.172c0-.16 0-.585.509-.874.19-.108.361-.146.507-.146.244 0 .419.104.505.155l134.53 80.189c4.002 2.386 5.327 7.588 2.951 11.598l-61.516 103.837c-1.155 1.95-3.002 3.333-5.199 3.892zm35.841 43.19c-3.002.494-6.016-.213-8.489-1.987-2.471-1.774-4.104-4.404-4.597-7.406-.493-3.003.212-6.017 1.987-8.488l10.7-14.905c.261-.364.541-.707.835-1.03.222-.199.433-.414.633-.642 3.887-3.641 9.942-4.158 14.428-.938 5.102 3.663 6.273 10.794 2.61 15.896-.006.008-.012.017-.018.025l-10.683 14.88c-1.773 2.47-4.404 4.102-7.406 4.595zm22.202 20.046c-2.471-1.774-4.104-4.404-4.597-7.406-.493-3.003.212-6.017 1.987-8.488l10.7-14.905s0-.001.001-.001l11.808-16.448c1.774-2.472 4.404-4.104 7.407-4.598.625-.103 1.249-.153 1.87-.153 2.363 0 4.661.735 6.619 2.141 5.102 3.662 6.273 10.793 2.61 15.896l-22.51 31.354c-3.663 5.101-10.794 6.268-15.895 2.608zm39.179 24.02c-3.001.493-6.016-.213-8.488-1.987-5.102-3.662-6.273-10.793-2.61-15.895.006-.009.012-.017.018-.026l22.492-31.329c3.662-5.103 10.793-6.271 15.896-2.61 2.471 1.774 4.104 4.404 4.597 7.407.493 3.002-.213 6.017-1.987 8.488l-22.51 31.354c-1.775 2.472-4.406 4.105-7.408 4.598zm27.224 13.05c-2.471-1.774-4.104-4.404-4.597-7.407-.493-3.002.212-6.016 1.987-8.487.008-.011.015-.021.022-.032l7.471-10.406c3.666-5.092 10.789-6.259 15.887-2.599 5.102 3.663 6.273 10.794 2.61 15.896l-4.28 5.962c-.045.06-.089.122-.132.184l-3.073 4.281c-3.661 5.1-10.791 6.272-15.895 2.608zm180.702-64.167c-3.203 5.405-10.21 7.198-15.611 3.995l-17.339-10.271c-.008-.004-.015-.009-.023-.013l-53.7-31.814c-3.565-2.111-8.165-.934-10.275 2.629-2.111 3.564-.935 8.165 2.629 10.275l53.724 31.828s0 0 .001.001l.007.004c5.4 3.205 7.189 10.205 3.989 15.608-1.552 2.619-4.03 4.477-6.979 5.231s-6.016.317-8.635-1.236l-14.133-8.372c-.012-.007-.022-.014-.034-.021-.007-.004-.015-.009-.022-.013l-39.561-23.437c-3.565-2.112-8.164-.934-10.275 2.629-2.111 3.564-.935 8.165 2.629 10.275l39.562 23.438c.008.005.016.01.023.014 2.618 1.551 4.477 4.029 5.231 6.978.755 2.949.315 6.016-1.236 8.635s-4.029 4.477-6.979 5.231c-2.948.755-6.016.316-8.634-1.235l-21.211-12.566c-.014-.008-.027-.017-.04-.025l-15.512-9.189c-3.562-2.109-8.163-.934-10.275 2.631-2.11 3.563-.934 8.164 2.631 10.275l15.511 9.189.021.012c5.391 3.208 7.175 10.201 3.977 15.601-3.205 5.406-10.209 7.197-15.613 3.997l-18.566-10.999c7.979-11.775 5.162-27.889-6.462-36.235-3.553-2.55-7.53-4.088-11.586-4.672 1.794-4.435 2.344-9.289 1.549-14.13-1.142-6.956-4.925-13.051-10.651-17.162-6.009-4.313-13.233-5.733-19.999-4.534-1.027-6.794-4.682-13.185-10.692-17.499-5.727-4.111-12.709-5.745-19.667-4.604-5.81.954-11.018 3.75-14.972 7.982-1.842-3.446-4.479-6.533-7.861-8.962-8.963-6.434-20.629-6.43-29.447-.897l-5.318-3.139 51.028-86.133 3.768 2.221c6.337 3.755 13.406 5.66 20.528 5.66 4.913 0 9.851-.907 14.59-2.739l15.432-5.966c9.225-3.564 14.179-3.733 23.493.798-5.921 6.389-9.449 14.914-9.449 24.117v35.595c0 9.163 7.449 16.623 16.606 16.63h.023c9.335 0 18.112-3.634 24.716-10.233 4.008-4.005 6.924-8.812 8.599-14.058l104.464 61.862c.345.205.701.378 1.065.522.3.248.622.476.968.681 5.402 3.202 7.195 10.205 3.993 15.61z"/><path fill="#ffffff" d="m170.027 198.651h171.945c15.568 0 28.233-12.665 28.233-28.233v-102.302c0-15.568-12.665-28.233-28.233-28.233h-41.392v-11.884c0-13.658-11.11-24.771-24.767-24.771h-39.629c-13.656 0-24.767 11.112-24.767 24.771v11.884h-41.392c-15.568 0-28.233 12.665-28.233 28.233v56.355c0 4.143 3.358 7.5 7.5 7.5s7.5-3.357 7.5-7.5v-13.939c7.982 7.163 18.526 11.526 30.069 11.526h5.87v8.25c0 4.143 3.358 7.5 7.5 7.5s7.5-3.357 7.5-7.5v-8.25h96.533v8.25c0 4.143 3.357 7.5 7.5 7.5s7.5-3.357 7.5-7.5v-8.25h5.869c11.544 0 22.088-4.363 30.07-11.526v59.885c0 7.297-5.937 13.233-13.233 13.233h-171.943c-7.297 0-13.233-5.937-13.233-13.233v-10.884c0-4.143-3.358-7.5-7.5-7.5s-7.5 3.357-7.5 7.5v10.884c0 15.569 12.665 28.234 28.233 28.234zm56.392-170.652c0-5.388 4.381-9.771 9.767-9.771h39.629c5.386 0 9.767 4.383 9.767 9.771v11.884h-59.162v-11.884zm98.717 79.059h-5.869v-8.25c0-4.143-3.357-7.5-7.5-7.5s-7.5 3.357-7.5 7.5v8.25h-96.533v-8.25c0-4.143-3.358-7.5-7.5-7.5s-7.5 3.357-7.5 7.5v8.25h-5.87c-16.58 0-30.069-13.489-30.069-30.069v-8.873c0-7.297 5.936-13.233 13.233-13.233h171.945c7.297 0 13.233 5.937 13.233 13.233v8.873c0 16.58-13.489 30.069-30.07 30.069z"/>
  </symbol>

  <symbol id="accounting" viewBox="0 0 503.63 503.63">
    <path fill="#ffffff" d="m165.515 85.681c-4.109-3.521-9.54-5.068-14.901-4.235-44.066 6.822-77.296 45.54-77.296 90.061 0 24.19 9.52 47.032 26.805 64.318s40.127 26.805 64.318 26.805c44.521 0 83.239-33.23 90.061-77.296.83-5.361-.713-10.792-4.235-14.901-3.5-4.083-8.593-6.426-13.972-6.426h-60.925c-1.891 0-3.429-1.538-3.429-3.429v-60.926c0-5.379-2.343-10.471-6.426-13.971zm9.855 93.326h60.925c1.361 0 2.202.744 2.583 1.188.393.458 1.019 1.437.801 2.844-5.701 36.823-38.046 64.591-75.238 64.591-41.975 0-76.123-34.148-76.123-76.123 0-37.191 27.768-69.537 64.591-75.238.2-.031.391-.045.573-.045 1.102 0 1.878.509 2.271.846.443.38 1.188 1.221 1.188 2.583v60.925c0 10.162 8.267 18.429 18.429 18.429z"/><path fill="#ffffff" d="m456.37 411.63c4.142 0 7.5-3.358 7.5-7.5v-345.07c0-20.799-16.917-37.72-37.71-37.72h-15.027c-6.11-12.617-19.046-21.34-33.983-21.34h-299.67c-20.799 0-37.72 16.921-37.72 37.72v140.91c0 4.142 3.358 7.5 7.5 7.5s7.5-3.358 7.5-7.5v-140.91c0-12.528 10.192-22.72 22.72-22.72h299.67c12.533 0 22.73 10.192 22.73 22.72v334.85h-58.39c-11.64 0-21.11 9.47-21.11 21.11v60.61h-242.9c-12.528 0-22.72-10.188-22.72-22.71v-218.95c0-4.142-3.358-7.5-7.5-7.5s-7.5 3.358-7.5 7.5v218.95c0 20.793 16.921 37.71 37.72 37.71h11.429c1.716 19.22 17.902 34.34 37.56 34.34h299.69c20.793 0 37.71-16.921 37.71-37.72v-26.78c0-4.142-3.358-7.5-7.5-7.5s-7.5 3.358-7.5 7.5v26.78c0 12.528-10.188 22.72-22.71 22.72h-299.689c-11.379 0-20.829-8.41-22.467-19.34h223.787c.031 0 .063.004.094.004 1.954 0 3.906-.759 5.376-2.271l79.496-81.721c1.346-1.384 2.124-3.303 2.124-5.233v-343.729h11.28c12.522 0 22.71 10.192 22.71 22.72v345.07c0 4.142 3.358 7.5 7.5 7.5zm-114.88-24.06h48.135l-54.245 55.763v-49.653c0-3.369 2.741-6.11 6.11-6.11z"/><path fill="#ffffff" d="m337.672 349.486c0-4.142-3.358-7.5-7.5-7.5h-231.631c-4.142 0-7.5 3.358-7.5 7.5s3.358 7.5 7.5 7.5h231.631c4.142 0 7.5-3.358 7.5-7.5z"/><path fill="#ffffff" d="m96.254 379.718c-4.142 0-7.5 3.358-7.5 7.5s3.358 7.5 7.5 7.5h164.5c4.142 0 7.5-3.358 7.5-7.5s-3.358-7.5-7.5-7.5z"/><path fill="#ffffff" d="m91.041 311.754c0 4.142 3.358 7.5 7.5 7.5h231.631c4.142 0 7.5-3.358 7.5-7.5s-3.358-7.5-7.5-7.5h-231.631c-4.142 0-7.5 3.358-7.5 7.5z"/><path fill="#ffffff" d="m208.253 51.834c-5.344-.807-10.751.75-14.838 4.268-4.068 3.5-6.401 8.586-6.401 13.953v62.066c0 10.162 8.267 18.429 18.429 18.429h73.817c4.142 0 7.5-3.358 7.5-7.5 0-24.283-9.848-48.057-27.018-65.228-13.84-13.84-32.126-23.069-51.489-25.988zm-2.81 83.717c-1.894 0-3.429-1.535-3.429-3.429v-62.067c.285-2.542 1.619-3.479 4.003-3.389 16.215 2.444 31.528 10.173 43.118 21.763 12.162 12.162 19.937 28.28 22.044 45.267.122.987-.664 1.854-1.658 1.854h-64.078z"/><path fill="#ffffff" d="m307.76 223.13c0 .023.003.045.003.068v21.894c0 9.697 6.751 17.827 15.794 19.991v14.063c0 4.142 3.358 7.5 7.5 7.5s7.5-3.358 7.5-7.5v-14.06c9.048-2.16 15.804-10.294 15.804-19.994v-151.676c4.579-.288 9.037 1.38 12.276 4.619 3.011 3.019 4.67 7.022 4.67 11.272v41.823c0 4.142 3.358 7.5 7.5 7.5s7.5-3.358 7.5-7.5v-41.823c0-8.25-3.214-16.015-9.057-21.872-5.84-5.841-13.604-9.057-21.862-9.057-.342 0-.685.011-1.027.023v-11.642c0-11.345-9.23-20.575-20.575-20.575h-5.448c-11.345 0-20.575 9.23-20.575 20.575v77.303c0 .023-.003.045-.003.068s.003.045.003.068v78.865c0 .022-.003.044-.003.067zm31.602-7.5h-16.598v-64h16.598zm-5.576 35.037h-5.448c-3.074 0-5.575-2.501-5.575-5.575v-14.462h16.598v14.461c.001 3.075-2.5 5.576-5.575 5.576zm-5.447-189.483h5.448c3.074 0 5.575 2.501 5.575 5.575v69.871h-16.598v-69.871c-.001-3.074 2.5-5.575 5.575-5.575z"/>
  </symbol>
</svg>